<svg xmlns="http://www.w3.org/2000/svg" height="24" viewBox="0 -960 960 960" width="24"><path d="M280.37-121.869q-35.783 0-60.892-25.109t-25.109-60.892v-506.5h-1.5q-17.652 0-30.326-12.673-12.674-12.674-12.674-30.327 0-17.652 12.674-30.326t30.326-12.674H356.5v-.5q0-17.652 12.674-30.326T399.5-843.87h161.522q17.652 0 30.326 12.674t12.674 30.326v.5h164.109q17.652 0 30.326 12.674t12.674 30.326q0 17.653-12.674 30.327-12.674 12.673-30.326 12.673h-1.5v506.5q0 35.783-25.109 60.892t-60.892 25.109H280.37Zm120.695-161.87q16.457 0 28.294-11.837t11.837-28.294v-274.739q0-16.456-11.837-28.293t-28.294-11.837q-16.456 0-28.413 11.837-11.956 11.837-11.956 28.293v274.739q0 16.457 11.956 28.294 11.957 11.837 28.413 11.837Zm159.109 0q16.456 0 28.293-11.837t11.837-28.294v-274.739q0-16.456-11.837-28.293t-28.293-11.837q-16.457 0-28.413 11.837-11.957 11.837-11.957 28.293v274.739q0 16.457 11.957 28.294 11.956 11.837 28.413 11.837Z"/></svg>